<svg xmlns="http://www.w3.org/2000/svg" width="15" height="15" viewBox="0 0 15 15"><g><g><path fill="#ff0036" d="M9.737 10.993c.025 1.682-1.731 3.147-4.546 3.147-2.47 0-4.54-1.103-4.54-2.682 0-2.385 1.714-3.154 4.184-3.154.27 0 .516-.007.771-.007-.338-.321-.61-.6-.61-1.087 0-.292.093-.568.225-.815-.134.009-.271.018-.412.018-2.029 0-3.21-1.4-3.21-3.157 0-1.719 1.798-3.26 3.954-3.26h4.25l-.949.959H7.738c.788.442 1.206 1.354 1.206 2.36 0 .923-.52 1.666-1.255 2.231-.718.552-.854.782-.854 1.25 0 .4.857.995 1.252 1.285 1.372 1.012 1.63 1.649 1.65 2.912zM5.63 5.711c1.087.03 1.711-.829 1.524-2.226C6.968 2.09 6.26 1.04 5.173 1.007c-1.087-.03-2.04.942-1.85 2.338.186 1.397 1.22 2.333 2.308 2.366zm2.553 5.43c0-.133-.004-.27-.051-.393-.545-1.334-2.298-1.334-2.883-1.334-1.572 0-2.871.58-2.871 1.673 0 1.112 1.159 2.02 2.763 2.02 2.256 0 3.042-.85 3.042-1.966zm6.812-8.457H12.95V4.71h-.68V2.684H10.23V2.02h2.042V-.002h.679V2.02h2.045z"/></g></g></svg>