<svg xmlns="http://www.w3.org/2000/svg" width="145" height="145" viewBox="0 0 145 145"><defs><clipPath id="703xa"><path fill="#fff" d="M72.5-.004c40.04 0 72.5 32.46 72.5 72.5s-32.46 72.5-72.5 72.5S0 112.536 0 72.496s32.46-72.5 72.5-72.5z"/></clipPath></defs><g><g><path fill="#eaeaea" d="M72.5-.004c40.04 0 72.5 32.46 72.5 72.5s-32.46 72.5-72.5 72.5S0 112.536 0 72.496s32.46-72.5 72.5-72.5z"/><path fill="none" stroke="#e74c3c" stroke-linecap="round" stroke-linejoin="round" stroke-miterlimit="50" stroke-width="6" d="M72.5-.004c40.04 0 72.5 32.46 72.5 72.5s-32.46 72.5-72.5 72.5S0 112.536 0 72.496s32.46-72.5 72.5-72.5z" clip-path="url(&quot;#703xa&quot;)"/></g></g></svg>